<svg xmlns="http://www.w3.org/2000/svg" viewBox="0 0 400 260" width="400" height="260">
  <defs>
    <linearGradient id="bg2" x1="0%" y1="0%" x2="100%" y2="100%">
      <stop offset="0%" style="stop-color:#1a1a2e;stop-opacity:1"/>
      <stop offset="100%" style="stop-color:#16213e;stop-opacity:1"/>
    </linearGradient>
  </defs>
  <rect width="400" height="260" fill="url(#bg2)"/>
  <rect x="120" y="50" width="80" height="110" rx="4" fill="#7c3aed" opacity="0.3" transform="rotate(-10 160 105)"/>
  <rect x="140" y="45" width="80" height="110" rx="4" fill="#8b5cf6" opacity="0.4" transform="rotate(-5 180 100)"/>
  <rect x="160" y="40" width="80" height="110" rx="4" fill="#a78bfa" opacity="0.6"/>
  <line x1="170" y1="60" x2="230" y2="60" stroke="#c4b5fd" stroke-width="2" opacity="0.5"/>
  <line x1="170" y1="72" x2="220" y2="72" stroke="#c4b5fd" stroke-width="2" opacity="0.4"/>
  <line x1="170" y1="84" x2="225" y2="84" stroke="#c4b5fd" stroke-width="2" opacity="0.3"/>
  <line x1="170" y1="96" x2="215" y2="96" stroke="#c4b5fd" stroke-width="2" opacity="0.3"/>
  <circle cx="300" cy="80" r="8" fill="#fbbf24" opacity="0.8"/>
  <polygon points="300,60 305,72 298,72" fill="#fbbf24" opacity="0.5"/>
  <circle cx="100" cy="180" r="25" fill="#6366f1" opacity="0.15"/>
  <circle cx="300" cy="190" r="20" fill="#8b5cf6" opacity="0.15"/>
  <text x="200" y="200" text-anchor="middle" font-family="Arial,sans-serif" font-size="14" fill="#a5b4fc" font-weight="600">🎬 Interactive Stories</text>
  <text x="200" y="225" text-anchor="middle" font-family="Arial,sans-serif" font-size="11" fill="#a5b4fc" opacity="0.5">Python • Narrative Engine</text>
</svg>