<svg xmlns="http://www.w3.org/2000/svg" viewBox="0 0 400 260" width="400" height="260">
  <defs>
    <linearGradient id="bg4" x1="0%" y1="0%" x2="100%" y2="100%">
      <stop offset="0%" style="stop-color:#1a0a2e;stop-opacity:1"/>
      <stop offset="100%" style="stop-color:#2d1b69;stop-opacity:1"/>
    </linearGradient>
  </defs>
  <rect width="400" height="260" fill="url(#bg4)"/>
  <polyline points="40,180 80,170 120,175 160,140 200,150 240,100 280,110 320,70 360,80" fill="none" stroke="#22c55e" stroke-width="2.5" opacity="0.7"/>
  <polyline points="40,190 80,185 120,190 160,195 200,180 240,200 280,210 320,205 360,220" fill="none" stroke="#ef4444" stroke-width="2" opacity="0.5" stroke-dasharray="6,3"/>
  <circle cx="240" cy="100" r="6" fill="#22c55e" opacity="0.8"/>
  <circle cx="320" cy="70" r="6" fill="#22c55e" opacity="0.8"/>
  <circle cx="280" cy="210" r="5" fill="#ef4444" opacity="0.6"/>
  <rect x="250" y="40" width="120" height="40" rx="6" fill="#1e1b4b" stroke="#6366f1" stroke-width="1" opacity="0.8"/>
  <text x="310" y="55" text-anchor="middle" font-family="Arial,sans-serif" font-size="10" fill="#a5b4fc">⚠ Failure Alert</text>
  <text x="310" y="70" text-anchor="middle" font-family="monospace" font-size="9" fill="#ef4444">Risk: 87.3%</text>
  <text x="200" y="245" text-anchor="middle" font-family="Arial,sans-serif" font-size="11" fill="#a5b4fc" opacity="0.5">Predictive Analytics • ML Pipeline</text>
</svg>