<svg xmlns="http://www.w3.org/2000/svg" viewBox="0 0 400 260" width="400" height="260">
  <defs>
    <linearGradient id="bg5" x1="0%" y1="0%" x2="100%" y2="100%">
      <stop offset="0%" style="stop-color:#0c1222;stop-opacity:1"/>
      <stop offset="100%" style="stop-color:#1a2744;stop-opacity:1"/>
    </linearGradient>
  </defs>
  <rect width="400" height="260" fill="url(#bg5)"/>
  <rect x="150" y="50" width="100" height="120" rx="6" fill="#1e3a5f" stroke="#3b82f6" stroke-width="1.5" opacity="0.6"/>
  <rect x="175" y="55" width="50" height="20" rx="3" fill="#3b82f6" opacity="0.4"/>
  <text x="200" y="69" text-anchor="middle" font-size="12" fill="#93c5fd">🏥</text>
  <rect x="160" y="85" width="80" height="6" rx="3" fill="#3b82f6" opacity="0.3"/>
  <rect x="160" y="97" width="60" height="6" rx="3" fill="#3b82f6" opacity="0.25"/>
  <rect x="160" y="109" width="70" height="6" rx="3" fill="#3b82f6" opacity="0.2"/>
  <rect x="160" y="121" width="50" height="6" rx="3" fill="#3b82f6" opacity="0.15"/>
  <rect x="160" y="140" width="80" height="20" rx="4" fill="#22c55e" opacity="0.3"/>
  <text x="200" y="154" text-anchor="middle" font-family="Arial,sans-serif" font-size="9" fill="#86efac">Predicted: 3.2 days</text>
  <polyline points="60,200 100,185 140,190 180,170 220,160 260,155 300,140 340,130" fill="none" stroke="#22d3ee" stroke-width="2" opacity="0.5"/>
  <circle cx="300" cy="140" r="4" fill="#22d3ee" opacity="0.8"/>
  <text x="200" y="240" text-anchor="middle" font-family="Arial,sans-serif" font-size="11" fill="#94a3b8" opacity="0.5">Length of Stay Prediction • ML</text>
</svg>